<svg width="1920" height="876" fill="none" xmlns="http://www.w3.org/2000/svg"><ellipse cx="640.872" cy="335.776" rx="2.616" ry="3.122" fill="#D9D9D9" fill-opacity=".2"/><ellipse cx="257.918" cy="335.776" rx="2.616" ry="3.122" fill="#D9D9D9" fill-opacity=".3"/><ellipse cx="449.395" cy="335.776" rx="2.616" ry="3.122" fill="#D9D9D9" fill-opacity=".2"/><ellipse cx="66.442" cy="335.776" rx="2.616" ry="3.122" fill="#D9D9D9" fill-opacity=".5"/><ellipse cx="704.698" cy="335.776" rx="2.616" ry="3.122" fill="#D9D9D9" fill-opacity=".2"/><ellipse cx="321.744" cy="335.776" rx="2.616" ry="3.122" fill="#D9D9D9" fill-opacity=".3"/><ellipse cx="513.221" cy="335.776" rx="2.616" ry="3.122" fill="#D9D9D9" fill-opacity=".2"/><ellipse cx="130.267" cy="335.776" rx="2.616" ry="3.122" fill="#D9D9D9" fill-opacity=".4"/><ellipse cx="577.046" cy="335.776" rx="2.616" ry="3.122" fill="#D9D9D9" fill-opacity=".2"/><ellipse cx="194.093" cy="335.776" rx="2.616" ry="3.122" fill="#D9D9D9" fill-opacity=".4"/><ellipse cx="385.569" cy="335.776" rx="2.616" ry="3.122" fill="#D9D9D9" fill-opacity=".2"/><ellipse cx="2.616" cy="335.776" rx="2.616" ry="3.122" fill="#D9D9D9" fill-opacity=".5"/><ellipse cx="1406.78" cy="335.776" rx="2.616" ry="3.122" fill="#D9D9D9" fill-opacity=".2"/><ellipse cx="1023.83" cy="335.776" rx="2.616" ry="3.122" fill="#D9D9D9" fill-opacity=".2"/><ellipse cx="1215.3" cy="335.776" rx="2.616" ry="3.122" fill="#D9D9D9" fill-opacity=".2"/><ellipse cx="832.349" cy="335.776" rx="2.616" ry="3.122" fill="#D9D9D9" fill-opacity=".2"/><ellipse cx="1470.61" cy="335.776" rx="2.616" ry="3.122" fill="#D9D9D9" fill-opacity=".2"/><ellipse cx="1087.65" cy="335.776" rx="2.616" ry="3.122" fill="#D9D9D9" fill-opacity=".2"/><ellipse cx="1279.13" cy="335.776" rx="2.616" ry="3.122" fill="#D9D9D9" fill-opacity=".2"/><ellipse cx="896.174" cy="335.776" rx="2.616" ry="3.122" fill="#D9D9D9" fill-opacity=".2"/><ellipse cx="1342.95" cy="335.776" rx="2.616" ry="3.122" fill="#D9D9D9" fill-opacity=".2"/><ellipse cx="960" cy="335.776" rx="2.616" ry="3.122" fill="#D9D9D9" fill-opacity=".2"/><ellipse cx="1151.48" cy="335.776" rx="2.616" ry="3.122" fill="#D9D9D9" fill-opacity=".2"/><ellipse cx="768.523" cy="335.776" rx="2.616" ry="3.122" fill="#D9D9D9" fill-opacity=".2"/><ellipse cx="1789.73" cy="335.776" rx="2.616" ry="3.122" fill="#D9D9D9" fill-opacity=".4"/><ellipse cx="1598.26" cy="335.776" rx="2.616" ry="3.122" fill="#D9D9D9" fill-opacity=".3"/><ellipse cx="1853.56" cy="335.776" rx="2.616" ry="3.122" fill="#D9D9D9" fill-opacity=".5"/><ellipse cx="1662.08" cy="335.776" rx="2.616" ry="3.122" fill="#D9D9D9" fill-opacity=".3"/><ellipse cx="1725.91" cy="335.776" rx="2.616" ry="3.122" fill="#D9D9D9" fill-opacity=".4"/><ellipse cx="1917.38" cy="335.776" rx="2.616" ry="3.122" fill="#D9D9D9" fill-opacity=".5"/><ellipse cx="1534.43" cy="335.776" rx="2.616" ry="3.122" fill="#D9D9D9" fill-opacity=".2"/><ellipse cx="640.872" cy="120.949" rx="2.616" ry="3.122" fill="#D9D9D9" fill-opacity=".3"/><ellipse cx="257.918" cy="120.949" rx="2.616" ry="3.122" fill="#D9D9D9" fill-opacity=".3"/><ellipse cx="449.395" cy="120.949" rx="2.616" ry="3.122" fill="#D9D9D9" fill-opacity=".3"/><ellipse cx="66.442" cy="120.949" rx="2.616" ry="3.122" fill="#D9D9D9" fill-opacity=".5"/><ellipse cx="704.698" cy="120.949" rx="2.616" ry="3.122" fill="#D9D9D9" fill-opacity=".3"/><ellipse cx="321.744" cy="120.949" rx="2.616" ry="3.122" fill="#D9D9D9" fill-opacity=".3"/><ellipse cx="513.221" cy="120.949" rx="2.616" ry="3.122" fill="#D9D9D9" fill-opacity=".3"/><ellipse cx="130.267" cy="120.949" rx="2.616" ry="3.122" fill="#D9D9D9" fill-opacity=".4"/><ellipse cx="577.046" cy="120.949" rx="2.616" ry="3.122" fill="#D9D9D9" fill-opacity=".3"/><ellipse cx="194.093" cy="120.949" rx="2.616" ry="3.122" fill="#D9D9D9" fill-opacity=".4"/><ellipse cx="385.569" cy="120.949" rx="2.616" ry="3.122" fill="#D9D9D9" fill-opacity=".3"/><ellipse cx="2.616" cy="120.949" rx="2.616" ry="3.122" fill="#D9D9D9" fill-opacity=".5"/><ellipse cx="1406.78" cy="120.949" rx="2.616" ry="3.122" fill="#D9D9D9" fill-opacity=".3"/><ellipse cx="1023.83" cy="120.949" rx="2.616" ry="3.122" fill="#D9D9D9" fill-opacity=".3"/><ellipse cx="1215.3" cy="120.949" rx="2.616" ry="3.122" fill="#D9D9D9" fill-opacity=".3"/><ellipse cx="832.349" cy="120.949" rx="2.616" ry="3.122" fill="#D9D9D9" fill-opacity=".3"/><ellipse cx="1470.61" cy="120.949" rx="2.616" ry="3.122" fill="#D9D9D9" fill-opacity=".3"/><ellipse cx="1087.65" cy="120.949" rx="2.616" ry="3.122" fill="#D9D9D9" fill-opacity=".3"/><ellipse cx="1279.13" cy="120.949" rx="2.616" ry="3.122" fill="#D9D9D9" fill-opacity=".3"/><ellipse cx="896.174" cy="120.949" rx="2.616" ry="3.122" fill="#D9D9D9" fill-opacity=".3"/><ellipse cx="1342.95" cy="120.949" rx="2.616" ry="3.122" fill="#D9D9D9" fill-opacity=".3"/><ellipse cx="960" cy="120.949" rx="2.616" ry="3.122" fill="#D9D9D9" fill-opacity=".3"/><ellipse cx="1151.48" cy="120.949" rx="2.616" ry="3.122" fill="#D9D9D9" fill-opacity=".3"/><ellipse cx="768.523" cy="120.949" rx="2.616" ry="3.122" fill="#D9D9D9" fill-opacity=".3"/><ellipse cx="1789.73" cy="120.949" rx="2.616" ry="3.122" fill="#D9D9D9" fill-opacity=".4"/><ellipse cx="1598.26" cy="120.949" rx="2.616" ry="3.122" fill="#D9D9D9" fill-opacity=".3"/><ellipse cx="1853.56" cy="120.949" rx="2.616" ry="3.122" fill="#D9D9D9" fill-opacity=".5"/><ellipse cx="1662.08" cy="120.949" rx="2.616" ry="3.122" fill="#D9D9D9" fill-opacity=".3"/><ellipse cx="1725.91" cy="120.949" rx="2.616" ry="3.122" fill="#D9D9D9" fill-opacity=".4"/><ellipse cx="1917.38" cy="120.949" rx="2.616" ry="3.122" fill="#D9D9D9" fill-opacity=".5"/><ellipse cx="1534.43" cy="120.949" rx="2.616" ry="3.122" fill="#D9D9D9" fill-opacity=".3"/><ellipse cx="640.872" cy="550.602" rx="2.616" ry="3.122" fill="#D9D9D9" fill-opacity=".2"/><ellipse cx="257.918" cy="550.602" rx="2.616" ry="3.122" fill="#D9D9D9" fill-opacity=".3"/><ellipse cx="449.395" cy="550.602" rx="2.616" ry="3.122" fill="#D9D9D9" fill-opacity=".2"/><ellipse cx="66.442" cy="550.602" rx="2.616" ry="3.122" fill="#D9D9D9" fill-opacity=".5"/><ellipse cx="704.698" cy="550.602" rx="2.616" ry="3.122" fill="#D9D9D9" fill-opacity=".2"/><ellipse cx="321.744" cy="550.602" rx="2.616" ry="3.122" fill="#D9D9D9" fill-opacity=".3"/><ellipse cx="513.221" cy="550.602" rx="2.616" ry="3.122" fill="#D9D9D9" fill-opacity=".2"/><ellipse cx="130.267" cy="550.602" rx="2.616" ry="3.122" fill="#D9D9D9" fill-opacity=".4"/><ellipse cx="577.046" cy="550.602" rx="2.616" ry="3.122" fill="#D9D9D9" fill-opacity=".2"/><ellipse cx="194.093" cy="550.602" rx="2.616" ry="3.122" fill="#D9D9D9" fill-opacity=".4"/><ellipse cx="385.569" cy="550.602" rx="2.616" ry="3.122" fill="#D9D9D9" fill-opacity=".2"/><ellipse cx="2.616" cy="550.602" rx="2.616" ry="3.122" fill="#D9D9D9" fill-opacity=".5"/><ellipse cx="1406.78" cy="550.602" rx="2.616" ry="3.122" fill="#D9D9D9" fill-opacity=".2"/><ellipse cx="1023.83" cy="550.602" rx="2.616" ry="3.122" fill="#D9D9D9" fill-opacity=".2"/><ellipse cx="1215.3" cy="550.602" rx="2.616" ry="3.122" fill="#D9D9D9" fill-opacity=".2"/><ellipse cx="832.349" cy="550.602" rx="2.616" ry="3.122" fill="#D9D9D9" fill-opacity=".2"/><ellipse cx="1470.61" cy="550.602" rx="2.616" ry="3.122" fill="#D9D9D9" fill-opacity=".2"/><ellipse cx="1087.65" cy="550.602" rx="2.616" ry="3.122" fill="#D9D9D9" fill-opacity=".2"/><ellipse cx="1279.13" cy="550.602" rx="2.616" ry="3.122" fill="#D9D9D9" fill-opacity=".2"/><ellipse cx="896.174" cy="550.602" rx="2.616" ry="3.122" fill="#D9D9D9" fill-opacity=".2"/><ellipse cx="1342.95" cy="550.602" rx="2.616" ry="3.122" fill="#D9D9D9" fill-opacity=".2"/><ellipse cx="960" cy="550.602" rx="2.616" ry="3.122" fill="#D9D9D9" fill-opacity=".2"/><ellipse cx="1151.48" cy="550.602" rx="2.616" ry="3.122" fill="#D9D9D9" fill-opacity=".2"/><ellipse cx="768.523" cy="550.602" rx="2.616" ry="3.122" fill="#D9D9D9" fill-opacity=".2"/><ellipse cx="1789.73" cy="550.602" rx="2.616" ry="3.122" fill="#D9D9D9" fill-opacity=".4"/><ellipse cx="1598.26" cy="550.602" rx="2.616" ry="3.122" fill="#D9D9D9" fill-opacity=".3"/><ellipse cx="1853.56" cy="550.602" rx="2.616" ry="3.122" fill="#D9D9D9" fill-opacity=".5"/><ellipse cx="1662.08" cy="550.602" rx="2.616" ry="3.122" fill="#D9D9D9" fill-opacity=".3"/><ellipse cx="1725.91" cy="550.602" rx="2.616" ry="3.122" fill="#D9D9D9" fill-opacity=".4"/><ellipse cx="1917.38" cy="550.602" rx="2.616" ry="3.122" fill="#D9D9D9" fill-opacity=".5"/><ellipse cx="1534.43" cy="550.602" rx="2.616" ry="3.122" fill="#D9D9D9" fill-opacity=".2"/><ellipse cx="640.872" cy="13.536" rx="2.616" ry="3.122" fill="#D9D9D9" fill-opacity=".4"/><ellipse cx="257.918" cy="13.536" rx="2.616" ry="3.122" fill="#D9D9D9" fill-opacity=".4"/><ellipse cx="449.395" cy="13.536" rx="2.616" ry="3.122" fill="#D9D9D9" fill-opacity=".4"/><ellipse cx="66.442" cy="13.536" rx="2.616" ry="3.122" fill="#D9D9D9" fill-opacity=".5"/><ellipse cx="704.698" cy="13.536" rx="2.616" ry="3.122" fill="#D9D9D9" fill-opacity=".4"/><ellipse cx="321.744" cy="13.536" rx="2.616" ry="3.122" fill="#D9D9D9" fill-opacity=".4"/><ellipse cx="513.221" cy="13.536" rx="2.616" ry="3.122" fill="#D9D9D9" fill-opacity=".4"/><ellipse cx="130.267" cy="13.536" rx="2.616" ry="3.122" fill="#D9D9D9" fill-opacity=".4"/><ellipse cx="577.046" cy="13.536" rx="2.616" ry="3.122" fill="#D9D9D9" fill-opacity=".4"/><ellipse cx="194.093" cy="13.536" rx="2.616" ry="3.122" fill="#D9D9D9" fill-opacity=".4"/><ellipse cx="385.569" cy="13.536" rx="2.616" ry="3.122" fill="#D9D9D9" fill-opacity=".4"/><ellipse cx="2.616" cy="13.536" rx="2.616" ry="3.122" fill="#D9D9D9" fill-opacity=".5"/><ellipse cx="1406.78" cy="13.536" rx="2.616" ry="3.122" fill="#D9D9D9" fill-opacity=".4"/><ellipse cx="1023.83" cy="13.536" rx="2.616" ry="3.122" fill="#D9D9D9" fill-opacity=".4"/><ellipse cx="1215.3" cy="13.536" rx="2.616" ry="3.122" fill="#D9D9D9" fill-opacity=".4"/><ellipse cx="832.349" cy="13.536" rx="2.616" ry="3.122" fill="#D9D9D9" fill-opacity=".4"/><ellipse cx="1470.61" cy="13.536" rx="2.616" ry="3.122" fill="#D9D9D9" fill-opacity=".4"/><ellipse cx="1087.65" cy="13.536" rx="2.616" ry="3.122" fill="#D9D9D9" fill-opacity=".4"/><ellipse cx="1279.13" cy="13.536" rx="2.616" ry="3.122" fill="#D9D9D9" fill-opacity=".4"/><ellipse cx="896.174" cy="13.536" rx="2.616" ry="3.122" fill="#D9D9D9" fill-opacity=".4"/><ellipse cx="1342.95" cy="13.536" rx="2.616" ry="3.122" fill="#D9D9D9" fill-opacity=".4"/><ellipse cx="960" cy="13.536" rx="2.616" ry="3.122" fill="#D9D9D9" fill-opacity=".4"/><ellipse cx="1151.48" cy="13.536" rx="2.616" ry="3.122" fill="#D9D9D9" fill-opacity=".4"/><ellipse cx="768.523" cy="13.536" rx="2.616" ry="3.122" fill="#D9D9D9" fill-opacity=".4"/><ellipse cx="1789.73" cy="13.536" rx="2.616" ry="3.122" fill="#D9D9D9" fill-opacity=".4"/><ellipse cx="1598.26" cy="13.536" rx="2.616" ry="3.122" fill="#D9D9D9" fill-opacity=".4"/><ellipse cx="1853.56" cy="13.536" rx="2.616" ry="3.122" fill="#D9D9D9" fill-opacity=".5"/><ellipse cx="1662.08" cy="13.536" rx="2.616" ry="3.122" fill="#D9D9D9" fill-opacity=".4"/><ellipse cx="1725.91" cy="13.536" rx="2.616" ry="3.122" fill="#D9D9D9" fill-opacity=".4"/><ellipse cx="1917.38" cy="13.536" rx="2.616" ry="3.122" fill="#D9D9D9" fill-opacity=".5"/><ellipse cx="1534.43" cy="13.536" rx="2.616" ry="3.122" fill="#D9D9D9" fill-opacity=".4"/><ellipse cx="640.872" cy="443.188" rx="2.616" ry="3.122" fill="#D9D9D9" fill-opacity=".2"/><ellipse cx="257.918" cy="443.188" rx="2.616" ry="3.122" fill="#D9D9D9" fill-opacity=".3"/><ellipse cx="449.395" cy="443.188" rx="2.616" ry="3.122" fill="#D9D9D9" fill-opacity=".2"/><ellipse cx="66.442" cy="443.188" rx="2.616" ry="3.122" fill="#D9D9D9" fill-opacity=".5"/><ellipse cx="704.698" cy="443.188" rx="2.616" ry="3.122" fill="#D9D9D9" fill-opacity=".2"/><ellipse cx="321.744" cy="443.188" rx="2.616" ry="3.122" fill="#D9D9D9" fill-opacity=".3"/><ellipse cx="513.221" cy="443.188" rx="2.616" ry="3.122" fill="#D9D9D9" fill-opacity=".2"/><ellipse cx="130.267" cy="443.188" rx="2.616" ry="3.122" fill="#D9D9D9" fill-opacity=".4"/><ellipse cx="577.046" cy="443.188" rx="2.616" ry="3.122" fill="#D9D9D9" fill-opacity=".2"/><ellipse cx="194.093" cy="443.188" rx="2.616" ry="3.122" fill="#D9D9D9" fill-opacity=".4"/><ellipse cx="385.569" cy="443.188" rx="2.616" ry="3.122" fill="#D9D9D9" fill-opacity=".2"/><ellipse cx="2.616" cy="443.188" rx="2.616" ry="3.122" fill="#D9D9D9" fill-opacity=".5"/><ellipse cx="1406.78" cy="443.188" rx="2.616" ry="3.122" fill="#D9D9D9" fill-opacity=".2"/><ellipse cx="1023.83" cy="443.188" rx="2.616" ry="3.122" fill="#D9D9D9" fill-opacity=".2"/><ellipse cx="1215.3" cy="443.188" rx="2.616" ry="3.122" fill="#D9D9D9" fill-opacity=".2"/><ellipse cx="832.349" cy="443.188" rx="2.616" ry="3.122" fill="#D9D9D9" fill-opacity=".2"/><ellipse cx="1470.61" cy="443.188" rx="2.616" ry="3.122" fill="#D9D9D9" fill-opacity=".2"/><ellipse cx="1087.65" cy="443.188" rx="2.616" ry="3.122" fill="#D9D9D9" fill-opacity=".2"/><ellipse cx="1279.13" cy="443.188" rx="2.616" ry="3.122" fill="#D9D9D9" fill-opacity=".2"/><ellipse cx="896.174" cy="443.188" rx="2.616" ry="3.122" fill="#D9D9D9" fill-opacity=".2"/><ellipse cx="1342.95" cy="443.188" rx="2.616" ry="3.122" fill="#D9D9D9" fill-opacity=".2"/><ellipse cx="960" cy="443.188" rx="2.616" ry="3.122" fill="#D9D9D9" fill-opacity=".2"/><ellipse cx="1151.48" cy="443.188" rx="2.616" ry="3.122" fill="#D9D9D9" fill-opacity=".2"/><ellipse cx="768.523" cy="443.188" rx="2.616" ry="3.122" fill="#D9D9D9" fill-opacity=".2"/><ellipse cx="1789.73" cy="443.188" rx="2.616" ry="3.122" fill="#D9D9D9" fill-opacity=".4"/><ellipse cx="1598.26" cy="443.188" rx="2.616" ry="3.122" fill="#D9D9D9" fill-opacity=".3"/><ellipse cx="1853.56" cy="443.188" rx="2.616" ry="3.122" fill="#D9D9D9" fill-opacity=".5"/><ellipse cx="1662.08" cy="443.188" rx="2.616" ry="3.122" fill="#D9D9D9" fill-opacity=".3"/><ellipse cx="1725.91" cy="443.188" rx="2.616" ry="3.122" fill="#D9D9D9" fill-opacity=".4"/><ellipse cx="1917.38" cy="443.188" rx="2.616" ry="3.122" fill="#D9D9D9" fill-opacity=".5"/><ellipse cx="1534.43" cy="443.188" rx="2.616" ry="3.122" fill="#D9D9D9" fill-opacity=".2"/><ellipse cx="640.872" cy="228.362" rx="2.616" ry="3.122" fill="#D9D9D9" fill-opacity=".2"/><ellipse cx="257.918" cy="228.362" rx="2.616" ry="3.122" fill="#D9D9D9" fill-opacity=".3"/><ellipse cx="449.395" cy="228.362" rx="2.616" ry="3.122" fill="#D9D9D9" fill-opacity=".2"/><ellipse cx="66.442" cy="228.362" rx="2.616" ry="3.122" fill="#D9D9D9" fill-opacity=".5"/><ellipse cx="704.698" cy="228.362" rx="2.616" ry="3.122" fill="#D9D9D9" fill-opacity=".2"/><ellipse cx="321.744" cy="228.362" rx="2.616" ry="3.122" fill="#D9D9D9" fill-opacity=".3"/><ellipse cx="513.221" cy="228.362" rx="2.616" ry="3.122" fill="#D9D9D9" fill-opacity=".2"/><ellipse cx="130.267" cy="228.362" rx="2.616" ry="3.122" fill="#D9D9D9" fill-opacity=".4"/><ellipse cx="577.046" cy="228.362" rx="2.616" ry="3.122" fill="#D9D9D9" fill-opacity=".2"/><ellipse cx="194.093" cy="228.362" rx="2.616" ry="3.122" fill="#D9D9D9" fill-opacity=".4"/><ellipse cx="385.569" cy="228.362" rx="2.616" ry="3.122" fill="#D9D9D9" fill-opacity=".2"/><ellipse cx="2.616" cy="228.362" rx="2.616" ry="3.122" fill="#D9D9D9" fill-opacity=".5"/><ellipse cx="1406.78" cy="228.362" rx="2.616" ry="3.122" fill="#D9D9D9" fill-opacity=".2"/><ellipse cx="1023.83" cy="228.362" rx="2.616" ry="3.122" fill="#D9D9D9" fill-opacity=".2"/><ellipse cx="1215.3" cy="228.362" rx="2.616" ry="3.122" fill="#D9D9D9" fill-opacity=".2"/><ellipse cx="832.349" cy="228.362" rx="2.616" ry="3.122" fill="#D9D9D9" fill-opacity=".2"/><ellipse cx="1470.61" cy="228.362" rx="2.616" ry="3.122" fill="#D9D9D9" fill-opacity=".2"/><ellipse cx="1087.65" cy="228.362" rx="2.616" ry="3.122" fill="#D9D9D9" fill-opacity=".2"/><ellipse cx="1279.13" cy="228.362" rx="2.616" ry="3.122" fill="#D9D9D9" fill-opacity=".2"/><ellipse cx="896.174" cy="228.362" rx="2.616" ry="3.122" fill="#D9D9D9" fill-opacity=".2"/><ellipse cx="1342.95" cy="228.362" rx="2.616" ry="3.122" fill="#D9D9D9" fill-opacity=".2"/><ellipse cx="960" cy="228.362" rx="2.616" ry="3.122" fill="#D9D9D9" fill-opacity=".2"/><ellipse cx="1151.48" cy="228.362" rx="2.616" ry="3.122" fill="#D9D9D9" fill-opacity=".2"/><ellipse cx="768.523" cy="228.362" rx="2.616" ry="3.122" fill="#D9D9D9" fill-opacity=".2"/><ellipse cx="1789.73" cy="228.362" rx="2.616" ry="3.122" fill="#D9D9D9" fill-opacity=".4"/><ellipse cx="1598.26" cy="228.362" rx="2.616" ry="3.122" fill="#D9D9D9" fill-opacity=".3"/><ellipse cx="1853.56" cy="228.362" rx="2.616" ry="3.122" fill="#D9D9D9" fill-opacity=".5"/><ellipse cx="1662.08" cy="228.362" rx="2.616" ry="3.122" fill="#D9D9D9" fill-opacity=".3"/><ellipse cx="1725.91" cy="228.362" rx="2.616" ry="3.122" fill="#D9D9D9" fill-opacity=".4"/><ellipse cx="1917.38" cy="228.362" rx="2.616" ry="3.122" fill="#D9D9D9" fill-opacity=".5"/><ellipse cx="1534.43" cy="228.362" rx="2.616" ry="3.122" fill="#D9D9D9" fill-opacity=".2"/><ellipse cx="640.872" cy="658.015" rx="2.616" ry="3.122" fill="#D9D9D9" fill-opacity=".3"/><ellipse cx="257.918" cy="658.015" rx="2.616" ry="3.122" fill="#D9D9D9" fill-opacity=".3"/><ellipse cx="449.395" cy="658.015" rx="2.616" ry="3.122" fill="#D9D9D9" fill-opacity=".3"/><ellipse cx="66.442" cy="658.015" rx="2.616" ry="3.122" fill="#D9D9D9" fill-opacity=".5"/><ellipse cx="704.698" cy="658.015" rx="2.616" ry="3.122" fill="#D9D9D9" fill-opacity=".3"/><ellipse cx="321.744" cy="658.015" rx="2.616" ry="3.122" fill="#D9D9D9" fill-opacity=".3"/><ellipse cx="513.221" cy="658.015" rx="2.616" ry="3.122" fill="#D9D9D9" fill-opacity=".3"/><ellipse cx="130.267" cy="658.015" rx="2.616" ry="3.122" fill="#D9D9D9" fill-opacity=".4"/><ellipse cx="577.046" cy="658.015" rx="2.616" ry="3.122" fill="#D9D9D9" fill-opacity=".3"/><ellipse cx="194.093" cy="658.015" rx="2.616" ry="3.122" fill="#D9D9D9" fill-opacity=".4"/><ellipse cx="385.569" cy="658.015" rx="2.616" ry="3.122" fill="#D9D9D9" fill-opacity=".3"/><ellipse cx="2.616" cy="658.015" rx="2.616" ry="3.122" fill="#D9D9D9" fill-opacity=".5"/><ellipse cx="1406.78" cy="658.015" rx="2.616" ry="3.122" fill="#D9D9D9" fill-opacity=".3"/><ellipse cx="1023.83" cy="658.015" rx="2.616" ry="3.122" fill="#D9D9D9" fill-opacity=".3"/><ellipse cx="1215.3" cy="658.015" rx="2.616" ry="3.122" fill="#D9D9D9" fill-opacity=".3"/><ellipse cx="832.349" cy="658.015" rx="2.616" ry="3.122" fill="#D9D9D9" fill-opacity=".3"/><ellipse cx="1470.61" cy="658.015" rx="2.616" ry="3.122" fill="#D9D9D9" fill-opacity=".3"/><ellipse cx="1087.65" cy="658.015" rx="2.616" ry="3.122" fill="#D9D9D9" fill-opacity=".3"/><ellipse cx="1279.13" cy="658.015" rx="2.616" ry="3.122" fill="#D9D9D9" fill-opacity=".3"/><ellipse cx="896.174" cy="658.015" rx="2.616" ry="3.122" fill="#D9D9D9" fill-opacity=".3"/><ellipse cx="1342.95" cy="658.015" rx="2.616" ry="3.122" fill="#D9D9D9" fill-opacity=".3"/><ellipse cx="960" cy="658.015" rx="2.616" ry="3.122" fill="#D9D9D9" fill-opacity=".3"/><ellipse cx="1151.48" cy="658.015" rx="2.616" ry="3.122" fill="#D9D9D9" fill-opacity=".3"/><ellipse cx="768.523" cy="658.015" rx="2.616" ry="3.122" fill="#D9D9D9" fill-opacity=".3"/><ellipse cx="1789.73" cy="658.015" rx="2.616" ry="3.122" fill="#D9D9D9" fill-opacity=".4"/><ellipse cx="1598.26" cy="658.015" rx="2.616" ry="3.122" fill="#D9D9D9" fill-opacity=".3"/><ellipse cx="1853.56" cy="658.015" rx="2.616" ry="3.122" fill="#D9D9D9" fill-opacity=".5"/><ellipse cx="1662.08" cy="658.015" rx="2.616" ry="3.122" fill="#D9D9D9" fill-opacity=".3"/><ellipse cx="1725.91" cy="658.015" rx="2.616" ry="3.122" fill="#D9D9D9" fill-opacity=".4"/><ellipse cx="1917.38" cy="658.015" rx="2.616" ry="3.122" fill="#D9D9D9" fill-opacity=".5"/><ellipse cx="1534.43" cy="658.015" rx="2.616" ry="3.122" fill="#D9D9D9" fill-opacity=".3"/><ellipse cx="640.872" cy="819.135" rx="2.616" ry="3.122" fill="#D9D9D9" fill-opacity=".5"/><ellipse cx="257.918" cy="819.135" rx="2.616" ry="3.122" fill="#D9D9D9" fill-opacity=".5"/><ellipse cx="449.395" cy="819.135" rx="2.616" ry="3.122" fill="#D9D9D9" fill-opacity=".5"/><ellipse cx="66.442" cy="819.135" rx="2.616" ry="3.122" fill="#D9D9D9" fill-opacity=".5"/><ellipse cx="704.698" cy="819.135" rx="2.616" ry="3.122" fill="#D9D9D9" fill-opacity=".5"/><ellipse cx="321.744" cy="819.135" rx="2.616" ry="3.122" fill="#D9D9D9" fill-opacity=".5"/><ellipse cx="513.221" cy="819.135" rx="2.616" ry="3.122" fill="#D9D9D9" fill-opacity=".5"/><ellipse cx="130.267" cy="819.135" rx="2.616" ry="3.122" fill="#D9D9D9" fill-opacity=".5"/><ellipse cx="577.046" cy="819.135" rx="2.616" ry="3.122" fill="#D9D9D9" fill-opacity=".5"/><ellipse cx="194.093" cy="819.135" rx="2.616" ry="3.122" fill="#D9D9D9" fill-opacity=".5"/><ellipse cx="385.569" cy="819.135" rx="2.616" ry="3.122" fill="#D9D9D9" fill-opacity=".5"/><ellipse cx="2.616" cy="819.135" rx="2.616" ry="3.122" fill="#D9D9D9" fill-opacity=".5"/><ellipse cx="1406.78" cy="819.135" rx="2.616" ry="3.122" fill="#D9D9D9" fill-opacity=".5"/><ellipse cx="1023.83" cy="819.135" rx="2.616" ry="3.122" fill="#D9D9D9" fill-opacity=".5"/><ellipse cx="1215.3" cy="819.135" rx="2.616" ry="3.122" fill="#D9D9D9" fill-opacity=".5"/><ellipse cx="832.349" cy="819.135" rx="2.616" ry="3.122" fill="#D9D9D9" fill-opacity=".5"/><ellipse cx="1470.61" cy="819.135" rx="2.616" ry="3.122" fill="#D9D9D9" fill-opacity=".5"/><ellipse cx="1087.65" cy="819.135" rx="2.616" ry="3.122" fill="#D9D9D9" fill-opacity=".5"/><ellipse cx="1279.13" cy="819.135" rx="2.616" ry="3.122" fill="#D9D9D9" fill-opacity=".5"/><ellipse cx="896.174" cy="819.135" rx="2.616" ry="3.122" fill="#D9D9D9" fill-opacity=".5"/><ellipse cx="1342.95" cy="819.135" rx="2.616" ry="3.122" fill="#D9D9D9" fill-opacity=".5"/><ellipse cx="960" cy="819.135" rx="2.616" ry="3.122" fill="#D9D9D9" fill-opacity=".5"/><ellipse cx="1151.48" cy="819.135" rx="2.616" ry="3.122" fill="#D9D9D9" fill-opacity=".5"/><ellipse cx="768.523" cy="819.135" rx="2.616" ry="3.122" fill="#D9D9D9" fill-opacity=".5"/><ellipse cx="1789.73" cy="819.135" rx="2.616" ry="3.122" fill="#D9D9D9" fill-opacity=".5"/><ellipse cx="1598.26" cy="819.135" rx="2.616" ry="3.122" fill="#D9D9D9" fill-opacity=".5"/><ellipse cx="1853.56" cy="819.135" rx="2.616" ry="3.122" fill="#D9D9D9" fill-opacity=".5"/><ellipse cx="1662.08" cy="819.135" rx="2.616" ry="3.122" fill="#D9D9D9" fill-opacity=".5"/><ellipse cx="1725.91" cy="819.135" rx="2.616" ry="3.122" fill="#D9D9D9" fill-opacity=".5"/><ellipse cx="1917.38" cy="819.135" rx="2.616" ry="3.122" fill="#D9D9D9" fill-opacity=".5"/><ellipse cx="1534.43" cy="819.135" rx="2.616" ry="3.122" fill="#D9D9D9" fill-opacity=".5"/><ellipse cx="640.872" cy="389.481" rx="2.616" ry="3.122" fill="#D9D9D9" fill-opacity=".2"/><ellipse cx="257.918" cy="389.481" rx="2.616" ry="3.122" fill="#D9D9D9" fill-opacity=".3"/><ellipse cx="449.395" cy="389.481" rx="2.616" ry="3.122" fill="#D9D9D9" fill-opacity=".2"/><ellipse cx="66.442" cy="389.481" rx="2.616" ry="3.122" fill="#D9D9D9" fill-opacity=".5"/><ellipse cx="704.698" cy="389.481" rx="2.616" ry="3.122" fill="#D9D9D9" fill-opacity=".2"/><ellipse cx="321.744" cy="389.481" rx="2.616" ry="3.122" fill="#D9D9D9" fill-opacity=".3"/><ellipse cx="513.221" cy="389.481" rx="2.616" ry="3.122" fill="#D9D9D9" fill-opacity=".2"/><ellipse cx="130.267" cy="389.481" rx="2.616" ry="3.122" fill="#D9D9D9" fill-opacity=".4"/><ellipse cx="577.046" cy="389.481" rx="2.616" ry="3.122" fill="#D9D9D9" fill-opacity=".2"/><ellipse cx="194.093" cy="389.481" rx="2.616" ry="3.122" fill="#D9D9D9" fill-opacity=".4"/><ellipse cx="385.569" cy="389.481" rx="2.616" ry="3.122" fill="#D9D9D9" fill-opacity=".2"/><ellipse cx="2.616" cy="389.481" rx="2.616" ry="3.122" fill="#D9D9D9" fill-opacity=".5"/><ellipse cx="1406.78" cy="389.481" rx="2.616" ry="3.122" fill="#D9D9D9" fill-opacity=".2"/><ellipse cx="1023.83" cy="389.481" rx="2.616" ry="3.122" fill="#D9D9D9" fill-opacity=".2"/><ellipse cx="1215.3" cy="389.481" rx="2.616" ry="3.122" fill="#D9D9D9" fill-opacity=".2"/><ellipse cx="832.349" cy="389.481" rx="2.616" ry="3.122" fill="#D9D9D9" fill-opacity=".2"/><ellipse cx="1470.61" cy="389.481" rx="2.616" ry="3.122" fill="#D9D9D9" fill-opacity=".2"/><ellipse cx="1087.65" cy="389.481" rx="2.616" ry="3.122" fill="#D9D9D9" fill-opacity=".2"/><ellipse cx="1279.13" cy="389.481" rx="2.616" ry="3.122" fill="#D9D9D9" fill-opacity=".2"/><ellipse cx="896.174" cy="389.481" rx="2.616" ry="3.122" fill="#D9D9D9" fill-opacity=".2"/><ellipse cx="1342.95" cy="389.481" rx="2.616" ry="3.122" fill="#D9D9D9" fill-opacity=".2"/><ellipse cx="960" cy="389.481" rx="2.616" ry="3.122" fill="#D9D9D9" fill-opacity=".2"/><ellipse cx="1151.48" cy="389.481" rx="2.616" ry="3.122" fill="#D9D9D9" fill-opacity=".2"/><ellipse cx="768.523" cy="389.481" rx="2.616" ry="3.122" fill="#D9D9D9" fill-opacity=".2"/><ellipse cx="1789.73" cy="389.481" rx="2.616" ry="3.122" fill="#D9D9D9" fill-opacity=".4"/><ellipse cx="1598.26" cy="389.481" rx="2.616" ry="3.122" fill="#D9D9D9" fill-opacity=".3"/><ellipse cx="1853.56" cy="389.481" rx="2.616" ry="3.122" fill="#D9D9D9" fill-opacity=".5"/><ellipse cx="1662.08" cy="389.481" rx="2.616" ry="3.122" fill="#D9D9D9" fill-opacity=".3"/><ellipse cx="1725.91" cy="389.481" rx="2.616" ry="3.122" fill="#D9D9D9" fill-opacity=".4"/><ellipse cx="1917.38" cy="389.481" rx="2.616" ry="3.122" fill="#D9D9D9" fill-opacity=".5"/><ellipse cx="1534.43" cy="389.481" rx="2.616" ry="3.122" fill="#D9D9D9" fill-opacity=".2"/><ellipse cx="640.872" cy="174.655" rx="2.616" ry="3.122" fill="#D9D9D9" fill-opacity=".3"/><ellipse cx="257.918" cy="174.655" rx="2.616" ry="3.122" fill="#D9D9D9" fill-opacity=".3"/><ellipse cx="449.395" cy="174.655" rx="2.616" ry="3.122" fill="#D9D9D9" fill-opacity=".3"/><ellipse cx="66.442" cy="174.655" rx="2.616" ry="3.122" fill="#D9D9D9" fill-opacity=".5"/><ellipse cx="704.698" cy="174.655" rx="2.616" ry="3.122" fill="#D9D9D9" fill-opacity=".3"/><ellipse cx="321.744" cy="174.655" rx="2.616" ry="3.122" fill="#D9D9D9" fill-opacity=".3"/><ellipse cx="513.221" cy="174.655" rx="2.616" ry="3.122" fill="#D9D9D9" fill-opacity=".3"/><ellipse cx="130.267" cy="174.655" rx="2.616" ry="3.122" fill="#D9D9D9" fill-opacity=".4"/><ellipse cx="577.046" cy="174.655" rx="2.616" ry="3.122" fill="#D9D9D9" fill-opacity=".3"/><ellipse cx="194.093" cy="174.655" rx="2.616" ry="3.122" fill="#D9D9D9" fill-opacity=".4"/><ellipse cx="385.569" cy="174.655" rx="2.616" ry="3.122" fill="#D9D9D9" fill-opacity=".3"/><ellipse cx="2.616" cy="174.655" rx="2.616" ry="3.122" fill="#D9D9D9" fill-opacity=".5"/><ellipse cx="1406.78" cy="174.655" rx="2.616" ry="3.122" fill="#D9D9D9" fill-opacity=".3"/><ellipse cx="1023.83" cy="174.655" rx="2.616" ry="3.122" fill="#D9D9D9" fill-opacity=".3"/><ellipse cx="1215.3" cy="174.655" rx="2.616" ry="3.122" fill="#D9D9D9" fill-opacity=".3"/><ellipse cx="832.349" cy="174.655" rx="2.616" ry="3.122" fill="#D9D9D9" fill-opacity=".3"/><ellipse cx="1470.61" cy="174.655" rx="2.616" ry="3.122" fill="#D9D9D9" fill-opacity=".3"/><ellipse cx="1087.65" cy="174.655" rx="2.616" ry="3.122" fill="#D9D9D9" fill-opacity=".3"/><ellipse cx="1279.13" cy="174.655" rx="2.616" ry="3.122" fill="#D9D9D9" fill-opacity=".3"/><ellipse cx="896.174" cy="174.655" rx="2.616" ry="3.122" fill="#D9D9D9" fill-opacity=".3"/><ellipse cx="1342.95" cy="174.655" rx="2.616" ry="3.122" fill="#D9D9D9" fill-opacity=".3"/><ellipse cx="960" cy="174.655" rx="2.616" ry="3.122" fill="#D9D9D9" fill-opacity=".3"/><ellipse cx="1151.48" cy="174.655" rx="2.616" ry="3.122" fill="#D9D9D9" fill-opacity=".3"/><ellipse cx="768.523" cy="174.655" rx="2.616" ry="3.122" fill="#D9D9D9" fill-opacity=".3"/><ellipse cx="1789.73" cy="174.655" rx="2.616" ry="3.122" fill="#D9D9D9" fill-opacity=".4"/><ellipse cx="1598.26" cy="174.655" rx="2.616" ry="3.122" fill="#D9D9D9" fill-opacity=".3"/><ellipse cx="1853.56" cy="174.655" rx="2.616" ry="3.122" fill="#D9D9D9" fill-opacity=".5"/><ellipse cx="1662.08" cy="174.655" rx="2.616" ry="3.122" fill="#D9D9D9" fill-opacity=".3"/><ellipse cx="1725.91" cy="174.655" rx="2.616" ry="3.122" fill="#D9D9D9" fill-opacity=".4"/><ellipse cx="1917.38" cy="174.655" rx="2.616" ry="3.122" fill="#D9D9D9" fill-opacity=".5"/><ellipse cx="1534.43" cy="174.655" rx="2.616" ry="3.122" fill="#D9D9D9" fill-opacity=".3"/><ellipse cx="640.872" cy="604.308" rx="2.616" ry="3.122" fill="#D9D9D9" fill-opacity=".3"/><ellipse cx="257.918" cy="604.308" rx="2.616" ry="3.122" fill="#D9D9D9" fill-opacity=".3"/><ellipse cx="449.395" cy="604.308" rx="2.616" ry="3.122" fill="#D9D9D9" fill-opacity=".3"/><ellipse cx="66.442" cy="604.308" rx="2.616" ry="3.122" fill="#D9D9D9" fill-opacity=".5"/><ellipse cx="704.698" cy="604.308" rx="2.616" ry="3.122" fill="#D9D9D9" fill-opacity=".3"/><ellipse cx="321.744" cy="604.308" rx="2.616" ry="3.122" fill="#D9D9D9" fill-opacity=".3"/><ellipse cx="513.221" cy="604.308" rx="2.616" ry="3.122" fill="#D9D9D9" fill-opacity=".3"/><ellipse cx="130.267" cy="604.308" rx="2.616" ry="3.122" fill="#D9D9D9" fill-opacity=".4"/><ellipse cx="577.046" cy="604.308" rx="2.616" ry="3.122" fill="#D9D9D9" fill-opacity=".3"/><ellipse cx="194.093" cy="604.308" rx="2.616" ry="3.122" fill="#D9D9D9" fill-opacity=".4"/><ellipse cx="385.569" cy="604.308" rx="2.616" ry="3.122" fill="#D9D9D9" fill-opacity=".3"/><ellipse cx="2.616" cy="604.308" rx="2.616" ry="3.122" fill="#D9D9D9" fill-opacity=".5"/><ellipse cx="1406.78" cy="604.308" rx="2.616" ry="3.122" fill="#D9D9D9" fill-opacity=".3"/><ellipse cx="1023.83" cy="604.308" rx="2.616" ry="3.122" fill="#D9D9D9" fill-opacity=".3"/><ellipse cx="1215.3" cy="604.308" rx="2.616" ry="3.122" fill="#D9D9D9" fill-opacity=".3"/><ellipse cx="832.349" cy="604.308" rx="2.616" ry="3.122" fill="#D9D9D9" fill-opacity=".3"/><ellipse cx="1470.61" cy="604.308" rx="2.616" ry="3.122" fill="#D9D9D9" fill-opacity=".3"/><ellipse cx="1087.65" cy="604.308" rx="2.616" ry="3.122" fill="#D9D9D9" fill-opacity=".3"/><ellipse cx="1279.13" cy="604.308" rx="2.616" ry="3.122" fill="#D9D9D9" fill-opacity=".3"/><ellipse cx="896.174" cy="604.308" rx="2.616" ry="3.122" fill="#D9D9D9" fill-opacity=".3"/><ellipse cx="1342.95" cy="604.308" rx="2.616" ry="3.122" fill="#D9D9D9" fill-opacity=".3"/><ellipse cx="960" cy="604.308" rx="2.616" ry="3.122" fill="#D9D9D9" fill-opacity=".3"/><ellipse cx="1151.48" cy="604.308" rx="2.616" ry="3.122" fill="#D9D9D9" fill-opacity=".3"/><ellipse cx="768.523" cy="604.308" rx="2.616" ry="3.122" fill="#D9D9D9" fill-opacity=".3"/><ellipse cx="1789.73" cy="604.308" rx="2.616" ry="3.122" fill="#D9D9D9" fill-opacity=".4"/><ellipse cx="1598.26" cy="604.308" rx="2.616" ry="3.122" fill="#D9D9D9" fill-opacity=".3"/><ellipse cx="1853.56" cy="604.308" rx="2.616" ry="3.122" fill="#D9D9D9" fill-opacity=".5"/><ellipse cx="1662.08" cy="604.308" rx="2.616" ry="3.122" fill="#D9D9D9" fill-opacity=".3"/><ellipse cx="1725.91" cy="604.308" rx="2.616" ry="3.122" fill="#D9D9D9" fill-opacity=".4"/><ellipse cx="1917.38" cy="604.308" rx="2.616" ry="3.122" fill="#D9D9D9" fill-opacity=".5"/><ellipse cx="1534.43" cy="604.308" rx="2.616" ry="3.122" fill="#D9D9D9" fill-opacity=".3"/><ellipse cx="640.872" cy="765.428" rx="2.616" ry="3.122" fill="#D9D9D9" fill-opacity=".4"/><ellipse cx="257.918" cy="765.428" rx="2.616" ry="3.122" fill="#D9D9D9" fill-opacity=".4"/><ellipse cx="449.395" cy="765.428" rx="2.616" ry="3.122" fill="#D9D9D9" fill-opacity=".4"/><ellipse cx="66.442" cy="765.428" rx="2.616" ry="3.122" fill="#D9D9D9" fill-opacity=".5"/><ellipse cx="704.698" cy="765.428" rx="2.616" ry="3.122" fill="#D9D9D9" fill-opacity=".4"/><ellipse cx="321.744" cy="765.428" rx="2.616" ry="3.122" fill="#D9D9D9" fill-opacity=".4"/><ellipse cx="513.221" cy="765.428" rx="2.616" ry="3.122" fill="#D9D9D9" fill-opacity=".4"/><ellipse cx="130.267" cy="765.428" rx="2.616" ry="3.122" fill="#D9D9D9" fill-opacity=".4"/><ellipse cx="577.046" cy="765.428" rx="2.616" ry="3.122" fill="#D9D9D9" fill-opacity=".4"/><ellipse cx="194.093" cy="765.428" rx="2.616" ry="3.122" fill="#D9D9D9" fill-opacity=".4"/><ellipse cx="385.569" cy="765.428" rx="2.616" ry="3.122" fill="#D9D9D9" fill-opacity=".4"/><ellipse cx="2.616" cy="765.428" rx="2.616" ry="3.122" fill="#D9D9D9" fill-opacity=".5"/><ellipse cx="1406.78" cy="765.428" rx="2.616" ry="3.122" fill="#D9D9D9" fill-opacity=".4"/><ellipse cx="1023.83" cy="765.428" rx="2.616" ry="3.122" fill="#D9D9D9" fill-opacity=".4"/><ellipse cx="1215.3" cy="765.428" rx="2.616" ry="3.122" fill="#D9D9D9" fill-opacity=".4"/><ellipse cx="832.349" cy="765.428" rx="2.616" ry="3.122" fill="#D9D9D9" fill-opacity=".4"/><ellipse cx="1470.61" cy="765.428" rx="2.616" ry="3.122" fill="#D9D9D9" fill-opacity=".4"/><ellipse cx="1087.65" cy="765.428" rx="2.616" ry="3.122" fill="#D9D9D9" fill-opacity=".4"/><ellipse cx="1279.13" cy="765.428" rx="2.616" ry="3.122" fill="#D9D9D9" fill-opacity=".4"/><ellipse cx="896.174" cy="765.428" rx="2.616" ry="3.122" fill="#D9D9D9" fill-opacity=".4"/><ellipse cx="1342.95" cy="765.428" rx="2.616" ry="3.122" fill="#D9D9D9" fill-opacity=".4"/><ellipse cx="960" cy="765.428" rx="2.616" ry="3.122" fill="#D9D9D9" fill-opacity=".4"/><ellipse cx="1151.48" cy="765.428" rx="2.616" ry="3.122" fill="#D9D9D9" fill-opacity=".4"/><ellipse cx="768.523" cy="765.428" rx="2.616" ry="3.122" fill="#D9D9D9" fill-opacity=".4"/><ellipse cx="1789.73" cy="765.428" rx="2.616" ry="3.122" fill="#D9D9D9" fill-opacity=".4"/><ellipse cx="1598.26" cy="765.428" rx="2.616" ry="3.122" fill="#D9D9D9" fill-opacity=".4"/><ellipse cx="1853.56" cy="765.428" rx="2.616" ry="3.122" fill="#D9D9D9" fill-opacity=".5"/><ellipse cx="1662.08" cy="765.428" rx="2.616" ry="3.122" fill="#D9D9D9" fill-opacity=".4"/><ellipse cx="1725.91" cy="765.428" rx="2.616" ry="3.122" fill="#D9D9D9" fill-opacity=".4"/><ellipse cx="1917.38" cy="765.428" rx="2.616" ry="3.122" fill="#D9D9D9" fill-opacity=".5"/><ellipse cx="1534.43" cy="765.428" rx="2.616" ry="3.122" fill="#D9D9D9" fill-opacity=".4"/><ellipse cx="640.872" cy="67.242" rx="2.616" ry="3.122" fill="#D9D9D9" fill-opacity=".4"/><ellipse cx="257.918" cy="67.242" rx="2.616" ry="3.122" fill="#D9D9D9" fill-opacity=".4"/><ellipse cx="449.395" cy="67.242" rx="2.616" ry="3.122" fill="#D9D9D9" fill-opacity=".4"/><ellipse cx="66.442" cy="67.242" rx="2.616" ry="3.122" fill="#D9D9D9" fill-opacity=".5"/><ellipse cx="704.698" cy="67.242" rx="2.616" ry="3.122" fill="#D9D9D9" fill-opacity=".4"/><ellipse cx="321.744" cy="67.242" rx="2.616" ry="3.122" fill="#D9D9D9" fill-opacity=".4"/><ellipse cx="513.221" cy="67.242" rx="2.616" ry="3.122" fill="#D9D9D9" fill-opacity=".4"/><ellipse cx="130.267" cy="67.242" rx="2.616" ry="3.122" fill="#D9D9D9" fill-opacity=".4"/><ellipse cx="577.046" cy="67.242" rx="2.616" ry="3.122" fill="#D9D9D9" fill-opacity=".4"/><ellipse cx="194.093" cy="67.242" rx="2.616" ry="3.122" fill="#D9D9D9" fill-opacity=".4"/><ellipse cx="385.569" cy="67.242" rx="2.616" ry="3.122" fill="#D9D9D9" fill-opacity=".4"/><ellipse cx="2.616" cy="67.242" rx="2.616" ry="3.122" fill="#D9D9D9" fill-opacity=".5"/><ellipse cx="1406.78" cy="67.242" rx="2.616" ry="3.122" fill="#D9D9D9" fill-opacity=".4"/><ellipse cx="1023.83" cy="67.242" rx="2.616" ry="3.122" fill="#D9D9D9" fill-opacity=".4"/><ellipse cx="1215.3" cy="67.242" rx="2.616" ry="3.122" fill="#D9D9D9" fill-opacity=".4"/><ellipse cx="832.349" cy="67.242" rx="2.616" ry="3.122" fill="#D9D9D9" fill-opacity=".4"/><ellipse cx="1470.61" cy="67.242" rx="2.616" ry="3.122" fill="#D9D9D9" fill-opacity=".4"/><ellipse cx="1087.65" cy="67.242" rx="2.616" ry="3.122" fill="#D9D9D9" fill-opacity=".4"/><ellipse cx="1279.13" cy="67.242" rx="2.616" ry="3.122" fill="#D9D9D9" fill-opacity=".4"/><ellipse cx="896.174" cy="67.242" rx="2.616" ry="3.122" fill="#D9D9D9" fill-opacity=".4"/><ellipse cx="1342.95" cy="67.242" rx="2.616" ry="3.122" fill="#D9D9D9" fill-opacity=".4"/><ellipse cx="960" cy="67.242" rx="2.616" ry="3.122" fill="#D9D9D9" fill-opacity=".4"/><ellipse cx="1151.48" cy="67.242" rx="2.616" ry="3.122" fill="#D9D9D9" fill-opacity=".4"/><ellipse cx="768.523" cy="67.242" rx="2.616" ry="3.122" fill="#D9D9D9" fill-opacity=".4"/><ellipse cx="1789.73" cy="67.242" rx="2.616" ry="3.122" fill="#D9D9D9" fill-opacity=".4"/><ellipse cx="1598.26" cy="67.242" rx="2.616" ry="3.122" fill="#D9D9D9" fill-opacity=".4"/><ellipse cx="1853.56" cy="67.242" rx="2.616" ry="3.122" fill="#D9D9D9" fill-opacity=".5"/><ellipse cx="1662.08" cy="67.242" rx="2.616" ry="3.122" fill="#D9D9D9" fill-opacity=".4"/><ellipse cx="1725.91" cy="67.242" rx="2.616" ry="3.122" fill="#D9D9D9" fill-opacity=".4"/><ellipse cx="1917.38" cy="67.242" rx="2.616" ry="3.122" fill="#D9D9D9" fill-opacity=".5"/><ellipse cx="1534.43" cy="67.242" rx="2.616" ry="3.122" fill="#D9D9D9" fill-opacity=".4"/><ellipse cx="640.872" cy="496.894" rx="2.616" ry="3.122" fill="#D9D9D9" fill-opacity=".2"/><ellipse cx="257.918" cy="496.894" rx="2.616" ry="3.122" fill="#D9D9D9" fill-opacity=".3"/><ellipse cx="449.395" cy="496.894" rx="2.616" ry="3.122" fill="#D9D9D9" fill-opacity=".2"/><ellipse cx="66.442" cy="496.894" rx="2.616" ry="3.122" fill="#D9D9D9" fill-opacity=".5"/><ellipse cx="704.698" cy="496.894" rx="2.616" ry="3.122" fill="#D9D9D9" fill-opacity=".2"/><ellipse cx="321.744" cy="496.894" rx="2.616" ry="3.122" fill="#D9D9D9" fill-opacity=".3"/><ellipse cx="513.221" cy="496.894" rx="2.616" ry="3.122" fill="#D9D9D9" fill-opacity=".2"/><ellipse cx="130.267" cy="496.894" rx="2.616" ry="3.122" fill="#D9D9D9" fill-opacity=".4"/><ellipse cx="577.046" cy="496.894" rx="2.616" ry="3.122" fill="#D9D9D9" fill-opacity=".2"/><ellipse cx="194.093" cy="496.894" rx="2.616" ry="3.122" fill="#D9D9D9" fill-opacity=".4"/><ellipse cx="385.569" cy="496.894" rx="2.616" ry="3.122" fill="#D9D9D9" fill-opacity=".2"/><ellipse cx="2.616" cy="496.894" rx="2.616" ry="3.122" fill="#D9D9D9" fill-opacity=".5"/><ellipse cx="1406.78" cy="496.894" rx="2.616" ry="3.122" fill="#D9D9D9" fill-opacity=".2"/><ellipse cx="1023.83" cy="496.894" rx="2.616" ry="3.122" fill="#D9D9D9" fill-opacity=".2"/><ellipse cx="1215.3" cy="496.894" rx="2.616" ry="3.122" fill="#D9D9D9" fill-opacity=".2"/><ellipse cx="832.349" cy="496.894" rx="2.616" ry="3.122" fill="#D9D9D9" fill-opacity=".2"/><ellipse cx="1470.61" cy="496.894" rx="2.616" ry="3.122" fill="#D9D9D9" fill-opacity=".2"/><ellipse cx="1087.65" cy="496.894" rx="2.616" ry="3.122" fill="#D9D9D9" fill-opacity=".2"/><ellipse cx="1279.13" cy="496.894" rx="2.616" ry="3.122" fill="#D9D9D9" fill-opacity=".2"/><ellipse cx="896.174" cy="496.894" rx="2.616" ry="3.122" fill="#D9D9D9" fill-opacity=".2"/><ellipse cx="1342.95" cy="496.894" rx="2.616" ry="3.122" fill="#D9D9D9" fill-opacity=".2"/><ellipse cx="960" cy="496.894" rx="2.616" ry="3.122" fill="#D9D9D9" fill-opacity=".2"/><ellipse cx="1151.48" cy="496.894" rx="2.616" ry="3.122" fill="#D9D9D9" fill-opacity=".2"/><ellipse cx="768.523" cy="496.894" rx="2.616" ry="3.122" fill="#D9D9D9" fill-opacity=".2"/><ellipse cx="1789.73" cy="496.894" rx="2.616" ry="3.122" fill="#D9D9D9" fill-opacity=".4"/><ellipse cx="1598.26" cy="496.894" rx="2.616" ry="3.122" fill="#D9D9D9" fill-opacity=".3"/><ellipse cx="1853.56" cy="496.894" rx="2.616" ry="3.122" fill="#D9D9D9" fill-opacity=".5"/><ellipse cx="1662.08" cy="496.894" rx="2.616" ry="3.122" fill="#D9D9D9" fill-opacity=".3"/><ellipse cx="1725.91" cy="496.894" rx="2.616" ry="3.122" fill="#D9D9D9" fill-opacity=".4"/><ellipse cx="1917.38" cy="496.894" rx="2.616" ry="3.122" fill="#D9D9D9" fill-opacity=".5"/><ellipse cx="1534.43" cy="496.894" rx="2.616" ry="3.122" fill="#D9D9D9" fill-opacity=".2"/><ellipse cx="640.872" cy="282.069" rx="2.616" ry="3.122" fill="#D9D9D9" fill-opacity=".2"/><ellipse cx="257.918" cy="282.069" rx="2.616" ry="3.122" fill="#D9D9D9" fill-opacity=".3"/><ellipse cx="449.395" cy="282.069" rx="2.616" ry="3.122" fill="#D9D9D9" fill-opacity=".2"/><ellipse cx="66.442" cy="282.069" rx="2.616" ry="3.122" fill="#D9D9D9" fill-opacity=".5"/><ellipse cx="704.698" cy="282.069" rx="2.616" ry="3.122" fill="#D9D9D9" fill-opacity=".2"/><ellipse cx="321.744" cy="282.069" rx="2.616" ry="3.122" fill="#D9D9D9" fill-opacity=".3"/><ellipse cx="513.221" cy="282.069" rx="2.616" ry="3.122" fill="#D9D9D9" fill-opacity=".2"/><ellipse cx="130.267" cy="282.069" rx="2.616" ry="3.122" fill="#D9D9D9" fill-opacity=".4"/><ellipse cx="577.046" cy="282.069" rx="2.616" ry="3.122" fill="#D9D9D9" fill-opacity=".2"/><ellipse cx="194.093" cy="282.069" rx="2.616" ry="3.122" fill="#D9D9D9" fill-opacity=".4"/><ellipse cx="385.569" cy="282.069" rx="2.616" ry="3.122" fill="#D9D9D9" fill-opacity=".2"/><ellipse cx="2.616" cy="282.069" rx="2.616" ry="3.122" fill="#D9D9D9" fill-opacity=".5"/><ellipse cx="1406.78" cy="282.069" rx="2.616" ry="3.122" fill="#D9D9D9" fill-opacity=".2"/><ellipse cx="1023.83" cy="282.069" rx="2.616" ry="3.122" fill="#D9D9D9" fill-opacity=".2"/><ellipse cx="1215.3" cy="282.069" rx="2.616" ry="3.122" fill="#D9D9D9" fill-opacity=".2"/><ellipse cx="832.349" cy="282.069" rx="2.616" ry="3.122" fill="#D9D9D9" fill-opacity=".2"/><ellipse cx="1470.61" cy="282.069" rx="2.616" ry="3.122" fill="#D9D9D9" fill-opacity=".2"/><ellipse cx="1087.65" cy="282.069" rx="2.616" ry="3.122" fill="#D9D9D9" fill-opacity=".2"/><ellipse cx="1279.13" cy="282.069" rx="2.616" ry="3.122" fill="#D9D9D9" fill-opacity=".2"/><ellipse cx="896.174" cy="282.069" rx="2.616" ry="3.122" fill="#D9D9D9" fill-opacity=".2"/><ellipse cx="1342.95" cy="282.069" rx="2.616" ry="3.122" fill="#D9D9D9" fill-opacity=".2"/><ellipse cx="960" cy="282.069" rx="2.616" ry="3.122" fill="#D9D9D9" fill-opacity=".2"/><ellipse cx="1151.48" cy="282.069" rx="2.616" ry="3.122" fill="#D9D9D9" fill-opacity=".2"/><ellipse cx="768.523" cy="282.069" rx="2.616" ry="3.122" fill="#D9D9D9" fill-opacity=".2"/><ellipse cx="1789.73" cy="282.069" rx="2.616" ry="3.122" fill="#D9D9D9" fill-opacity=".4"/><ellipse cx="1598.26" cy="282.069" rx="2.616" ry="3.122" fill="#D9D9D9" fill-opacity=".3"/><ellipse cx="1853.56" cy="282.069" rx="2.616" ry="3.122" fill="#D9D9D9" fill-opacity=".5"/><ellipse cx="1662.08" cy="282.069" rx="2.616" ry="3.122" fill="#D9D9D9" fill-opacity=".3"/><ellipse cx="1725.91" cy="282.069" rx="2.616" ry="3.122" fill="#D9D9D9" fill-opacity=".4"/><ellipse cx="1917.38" cy="282.069" rx="2.616" ry="3.122" fill="#D9D9D9" fill-opacity=".5"/><ellipse cx="1534.43" cy="282.069" rx="2.616" ry="3.122" fill="#D9D9D9" fill-opacity=".2"/><ellipse cx="640.872" cy="711.721" rx="2.616" ry="3.122" fill="#D9D9D9" fill-opacity=".4"/><ellipse cx="257.918" cy="711.721" rx="2.616" ry="3.122" fill="#D9D9D9" fill-opacity=".4"/><ellipse cx="449.395" cy="711.721" rx="2.616" ry="3.122" fill="#D9D9D9" fill-opacity=".4"/><ellipse cx="66.442" cy="711.721" rx="2.616" ry="3.122" fill="#D9D9D9" fill-opacity=".5"/><ellipse cx="704.698" cy="711.721" rx="2.616" ry="3.122" fill="#D9D9D9" fill-opacity=".4"/><ellipse cx="321.744" cy="711.721" rx="2.616" ry="3.122" fill="#D9D9D9" fill-opacity=".4"/><ellipse cx="513.221" cy="711.721" rx="2.616" ry="3.122" fill="#D9D9D9" fill-opacity=".4"/><ellipse cx="130.267" cy="711.721" rx="2.616" ry="3.122" fill="#D9D9D9" fill-opacity=".4"/><ellipse cx="577.046" cy="711.721" rx="2.616" ry="3.122" fill="#D9D9D9" fill-opacity=".4"/><ellipse cx="385.569" cy="711.721" rx="2.616" ry="3.122" fill="#D9D9D9" fill-opacity=".4"/><ellipse cx="2.616" cy="711.721" rx="2.616" ry="3.122" fill="#D9D9D9" fill-opacity=".5"/><ellipse cx="1406.78" cy="711.721" rx="2.616" ry="3.122" fill="#D9D9D9" fill-opacity=".4"/><ellipse cx="1023.83" cy="711.721" rx="2.616" ry="3.122" fill="#D9D9D9" fill-opacity=".4"/><ellipse cx="1215.3" cy="711.721" rx="2.616" ry="3.122" fill="#D9D9D9" fill-opacity=".4"/><ellipse cx="832.349" cy="711.721" rx="2.616" ry="3.122" fill="#D9D9D9" fill-opacity=".4"/><ellipse cx="1470.61" cy="711.721" rx="2.616" ry="3.122" fill="#D9D9D9" fill-opacity=".4"/><ellipse cx="1087.65" cy="711.721" rx="2.616" ry="3.122" fill="#D9D9D9" fill-opacity=".4"/><ellipse cx="1279.13" cy="711.721" rx="2.616" ry="3.122" fill="#D9D9D9" fill-opacity=".4"/><ellipse cx="896.174" cy="711.721" rx="2.616" ry="3.122" fill="#D9D9D9" fill-opacity=".4"/><ellipse cx="1342.95" cy="711.721" rx="2.616" ry="3.122" fill="#D9D9D9" fill-opacity=".4"/><ellipse cx="960" cy="711.721" rx="2.616" ry="3.122" fill="#D9D9D9" fill-opacity=".4"/><ellipse cx="1151.48" cy="711.721" rx="2.616" ry="3.122" fill="#D9D9D9" fill-opacity=".4"/><ellipse cx="768.523" cy="711.721" rx="2.616" ry="3.122" fill="#D9D9D9" fill-opacity=".4"/><ellipse cx="1789.73" cy="711.721" rx="2.616" ry="3.122" fill="#D9D9D9" fill-opacity=".4"/><ellipse cx="1598.26" cy="711.721" rx="2.616" ry="3.122" fill="#D9D9D9" fill-opacity=".4"/><ellipse cx="1853.56" cy="711.721" rx="2.616" ry="3.122" fill="#D9D9D9" fill-opacity=".5"/><ellipse cx="1662.08" cy="711.721" rx="2.616" ry="3.122" fill="#D9D9D9" fill-opacity=".4"/><ellipse cx="1725.91" cy="711.721" rx="2.616" ry="3.122" fill="#D9D9D9" fill-opacity=".4"/><ellipse cx="1917.38" cy="711.721" rx="2.616" ry="3.122" fill="#D9D9D9" fill-opacity=".5"/><ellipse cx="1534.43" cy="711.721" rx="2.616" ry="3.122" fill="#D9D9D9" fill-opacity=".4"/><ellipse cx="640.872" cy="872.841" rx="2.616" ry="3.122" fill="#D9D9D9" fill-opacity=".5"/><ellipse cx="257.918" cy="872.841" rx="2.616" ry="3.122" fill="#D9D9D9" fill-opacity=".5"/><ellipse cx="449.395" cy="872.841" rx="2.616" ry="3.122" fill="#D9D9D9" fill-opacity=".5"/><ellipse cx="66.442" cy="872.841" rx="2.616" ry="3.122" fill="#D9D9D9" fill-opacity=".5"/><ellipse cx="704.698" cy="872.841" rx="2.616" ry="3.122" fill="#D9D9D9" fill-opacity=".5"/><ellipse cx="321.744" cy="872.841" rx="2.616" ry="3.122" fill="#D9D9D9" fill-opacity=".5"/><ellipse cx="513.221" cy="872.841" rx="2.616" ry="3.122" fill="#D9D9D9" fill-opacity=".5"/><ellipse cx="130.267" cy="872.841" rx="2.616" ry="3.122" fill="#D9D9D9" fill-opacity=".5"/><ellipse cx="577.046" cy="872.841" rx="2.616" ry="3.122" fill="#D9D9D9" fill-opacity=".5"/><ellipse cx="194.093" cy="872.841" rx="2.616" ry="3.122" fill="#D9D9D9" fill-opacity=".5"/><ellipse cx="385.569" cy="872.841" rx="2.616" ry="3.122" fill="#D9D9D9" fill-opacity=".5"/><ellipse cx="2.616" cy="872.841" rx="2.616" ry="3.122" fill="#D9D9D9" fill-opacity=".5"/><ellipse cx="1406.78" cy="872.841" rx="2.616" ry="3.122" fill="#D9D9D9" fill-opacity=".5"/><ellipse cx="1023.83" cy="872.841" rx="2.616" ry="3.122" fill="#D9D9D9" fill-opacity=".5"/><ellipse cx="1215.3" cy="872.841" rx="2.616" ry="3.122" fill="#D9D9D9" fill-opacity=".5"/><ellipse cx="832.349" cy="872.841" rx="2.616" ry="3.122" fill="#D9D9D9" fill-opacity=".5"/><ellipse cx="1470.61" cy="872.841" rx="2.616" ry="3.122" fill="#D9D9D9" fill-opacity=".5"/><ellipse cx="1087.65" cy="872.841" rx="2.616" ry="3.122" fill="#D9D9D9" fill-opacity=".5"/><ellipse cx="1279.13" cy="872.841" rx="2.616" ry="3.122" fill="#D9D9D9" fill-opacity=".5"/><ellipse cx="896.174" cy="872.841" rx="2.616" ry="3.122" fill="#D9D9D9" fill-opacity=".5"/><ellipse cx="1342.95" cy="872.841" rx="2.616" ry="3.122" fill="#D9D9D9" fill-opacity=".5"/><ellipse cx="960" cy="872.841" rx="2.616" ry="3.122" fill="#D9D9D9" fill-opacity=".5"/><ellipse cx="1151.48" cy="872.841" rx="2.616" ry="3.122" fill="#D9D9D9" fill-opacity=".5"/><ellipse cx="768.523" cy="872.841" rx="2.616" ry="3.122" fill="#D9D9D9" fill-opacity=".5"/><ellipse cx="1789.73" cy="872.841" rx="2.616" ry="3.122" fill="#D9D9D9" fill-opacity=".5"/><ellipse cx="1598.26" cy="872.841" rx="2.616" ry="3.122" fill="#D9D9D9" fill-opacity=".5"/><ellipse cx="1853.56" cy="872.841" rx="2.616" ry="3.122" fill="#D9D9D9" fill-opacity=".5"/><ellipse cx="1662.08" cy="872.841" rx="2.616" ry="3.122" fill="#D9D9D9" fill-opacity=".5"/><ellipse cx="1725.91" cy="872.841" rx="2.616" ry="3.122" fill="#D9D9D9" fill-opacity=".5"/><ellipse cx="1917.38" cy="872.841" rx="2.616" ry="3.122" fill="#D9D9D9" fill-opacity=".5"/><ellipse cx="1534.43" cy="872.841" rx="2.616" ry="3.122" fill="#D9D9D9" fill-opacity=".5"/></svg>